<svg id="Capa_1" data-name="Capa 1" xmlns="http://www.w3.org/2000/svg" xmlns:xlink="http://www.w3.org/1999/xlink" viewBox="0 0 550 119"><defs><style>.cls-1{fill:#142a54;}.cls-2{font-size:62.37px;fill:#4aedc2;letter-spacing:0.01em;}.cls-2,.cls-4{font-family:AlimentPERSONALUSE-Thin, Aliment PERSONAL USE;font-weight:200;}.cls-3{letter-spacing:-0.04em;}.cls-4{font-size:20.6px;letter-spacing:0.5em;}.cls-4,.cls-6,.cls-7,.cls-9{fill:#fff;}.cls-10,.cls-5,.cls-6{stroke:#fff;}.cls-10,.cls-5,.cls-6,.cls-7{stroke-miterlimit:10;}.cls-5{fill:url(#Degradado_sin_nombre_4);}.cls-7{stroke:#00d191;}.cls-10,.cls-8{fill:#63aa73;}</style><radialGradient id="Degradado_sin_nombre_4" cx="57.26" cy="58.86" r="54.36" gradientTransform="translate(0.1 -0.3)" gradientUnits="userSpaceOnUse"><stop offset="0" stop-color="#fcee21"/><stop offset="1" stop-color="#f6a801"/></radialGradient></defs><rect class="cls-1" width="550" height="119"/><text class="cls-2" transform="translate(115.17 67.5)">C<tspan class="cls-3" x="52.33" y="0">OW</tspan><tspan x="174.08" y="0">ORKING</tspan></text><text class="cls-4" transform="translate(121.17 98.96)">PORT d’ANDRATX</text><ellipse class="cls-5" cx="57.35" cy="58.53" rx="54.36" ry="54.33"/><path class="cls-6" d="M76.93,109a52.91,52.91,0,0,1-18.35,3.29,56.82,56.82,0,0,1-19.77-3.09l2.1-43.51L40.2,65c-.22-.25-.62-.45-.38-.69l1.09-.85V60l-2.5-2.77V55.6l-1.6-1.18V52.64l.9-1V41.22H48.32V29.56c0-1.17,0-2.33,0-3.49h1.09L56,21.65v-.88h-.65a5.68,5.68,0,0,1,1.48-2.67c1-1,.62-1,1-1s.07.09,1.11,1a4,4,0,0,1,1.35,2.67h-.8v.88l7.79,4.42h.92v3.49L68,40.77l10.21.3V51.6l.9,1v1.78l-1,1.18v1.63l-3.15,2.52-.3,3.71,1.17.85c.42.21.34.33,0,.69l-.9.69Z" transform="translate(0.1 -0.3)"/><path class="cls-7" d="M61.68,123.3" transform="translate(0.1 -0.3)"/><rect class="cls-8" x="54.49" y="28.43" width="7.15" height="10.33"/><polygon class="cls-9" points="52.12 33.33 7 38.98 6 40.98 5 42.98 5 43.98 4.2 45.98 3.99 47.47 4 48.98 3.51 49.53 3.77 50.61 52.12 33.33"/><polyline class="cls-9" points="16.07 23.95 15 23.99 14 25.99 13 26.99 12 27.99 11.42 28.99 11 29.99 10 31.99 9 33.98 53.29 34.03 16.07 23.95"/><polygon class="cls-9" points="53.6 34.83 26 13.99 25 14.99 23 15.99 22 16.99 20 18.99 17.68 20.95 53.6 34.83"/><polygon class="cls-9" points="64.43 33.94 108.06 39.6 109.02 41.6 109.99 43.6 109.99 44.6 110.76 46.6 110.96 48.09 110.95 49.6 111.43 50.15 111.18 51.24 64.43 33.94"/><polyline class="cls-9" points="99.28 24.57 100.32 24.6 101.29 26.6 102.25 27.6 103.22 28.6 103.78 29.6 104.19 30.6 105.16 32.6 106.12 34.6 63.3 34.65 99.28 24.57"/><polygon class="cls-9" points="63 35.45 89.69 14.6 90.65 15.6 92.59 16.6 93.55 17.6 95.49 19.6 97.73 21.56 63 35.45"/><polygon class="cls-10" points="67.68 111.64 63.13 112.17 59.62 112.37 56.14 112.37 51.97 112.11 48.46 111.64 50.43 91.9 65.72 91.9 67.68 111.64"/></svg>