<svg id="Capa_1" data-name="Capa 1" xmlns="http://www.w3.org/2000/svg" xmlns:xlink="http://www.w3.org/1999/xlink" viewBox="0 0 544.59 109.66"><defs><style>.cls-1{font-size:62.37px;fill:#4aedc2;letter-spacing:0.01em;}.cls-1,.cls-3{font-family:AlimentPERSONALUSE-Thin, Aliment PERSONAL USE;font-weight:200;}.cls-2{letter-spacing:-0.04em;}.cls-3{font-size:20.6px;fill:#5d5e5d;letter-spacing:0.5em;}.cls-4,.cls-5,.cls-9{stroke:#fff;}.cls-4,.cls-5,.cls-6,.cls-9{stroke-miterlimit:10;}.cls-4{fill:url(#Degradado_sin_nombre_4);}.cls-5,.cls-6,.cls-8{fill:#fff;}.cls-6{stroke:#00d191;}.cls-7,.cls-9{fill:#63aa73;}</style><radialGradient id="Degradado_sin_nombre_4" cx="57.26" cy="58.86" r="54.36" gradientTransform="translate(-2.4 -4)" gradientUnits="userSpaceOnUse"><stop offset="0" stop-color="#fcee21"/><stop offset="1" stop-color="#f6a801"/></radialGradient></defs><text class="cls-1" transform="translate(112.67 63.8)">C<tspan class="cls-2" x="52.33" y="0">OW</tspan><tspan x="174.08" y="0">ORKING</tspan></text><text class="cls-3" transform="translate(118.67 95.26)">PORT d’ANDRATX</text><ellipse class="cls-4" cx="54.86" cy="54.83" rx="54.36" ry="54.33"/><path class="cls-5" d="M76.93,109a52.91,52.91,0,0,1-18.35,3.29,56.82,56.82,0,0,1-19.77-3.09l2.1-43.51L40.2,65c-.22-.25-.62-.45-.38-.69l1.09-.85V60l-2.5-2.77V55.6l-1.6-1.18V52.64l.9-1V41.22H48.32V29.56c0-1.17,0-2.33,0-3.49h1.09L56,21.65v-.88h-.65a5.68,5.68,0,0,1,1.48-2.67c1-1,.62-1,1-1s.07.09,1.11,1a4,4,0,0,1,1.35,2.67h-.8v.88l7.79,4.42h.92v3.49L68,40.77l10.21.3V51.6l.9,1v1.78l-1,1.18v1.63l-3.15,2.52-.3,3.71,1.17.85c.42.21.34.33,0,.69l-.9.69Z" transform="translate(-2.4 -4)"/><path class="cls-6" d="M61.68,123.3" transform="translate(-2.4 -4)"/><rect class="cls-7" x="52" y="24.73" width="7.15" height="10.33"/><polygon class="cls-8" points="49.63 29.63 4.5 35.28 3.5 37.28 2.5 39.28 2.5 40.28 1.71 42.28 1.5 43.77 1.5 45.28 1.01 45.83 1.27 46.91 49.63 29.63"/><polyline class="cls-8" points="13.58 20.25 12.51 20.29 11.51 22.29 10.51 23.29 9.51 24.29 8.93 25.29 8.51 26.29 7.5 28.29 6.5 30.29 50.8 30.33 13.58 20.25"/><polygon class="cls-8" points="51.11 31.13 23.5 10.3 22.5 11.29 20.5 12.29 19.5 13.29 17.5 15.29 15.18 17.25 51.11 31.13"/><polygon class="cls-8" points="61.94 30.24 105.56 35.9 106.53 37.9 107.49 39.9 107.49 40.9 108.27 42.9 108.47 44.39 108.46 45.9 108.94 46.45 108.69 47.54 61.94 30.24"/><polyline class="cls-8" points="96.79 20.87 97.83 20.9 98.79 22.9 99.76 23.9 100.73 24.9 101.28 25.9 101.69 26.9 102.66 28.9 103.63 30.9 60.8 30.95 96.79 20.87"/><polygon class="cls-8" points="60.51 31.75 87.19 10.9 88.16 11.9 90.09 12.9 91.06 13.9 92.99 15.9 95.24 17.86 60.51 31.75"/><polygon class="cls-9" points="65.19 107.94 60.63 108.48 57.13 108.67 53.65 108.67 49.48 108.41 45.97 107.94 47.93 88.2 63.22 88.2 65.19 107.94"/></svg>